%TF.GenerationSoftware,KiCad,Pcbnew,(6.0.9)*%
%TF.CreationDate,2023-01-19T16:03:38-06:00*%
%TF.ProjectId,LIS3MDL_DRV8833_Board,4c495333-4d44-44c5-9f44-525638383333,rev?*%
%TF.SameCoordinates,Original*%
%TF.FileFunction,Copper,L2,Bot*%
%TF.FilePolarity,Positive*%
%FSLAX46Y46*%
G04 Gerber Fmt 4.6, Leading zero omitted, Abs format (unit mm)*
G04 Created by KiCad (PCBNEW (6.0.9)) date 2023-01-19 16:03:38*
%MOMM*%
%LPD*%
G01*
G04 APERTURE LIST*
%TA.AperFunction,ComponentPad*%
%ADD10R,1.000000X1.000000*%
%TD*%
%TA.AperFunction,ComponentPad*%
%ADD11O,1.000000X1.000000*%
%TD*%
%TA.AperFunction,ComponentPad*%
%ADD12C,0.500000*%
%TD*%
%TA.AperFunction,SMDPad,CuDef*%
%ADD13R,2.100000X2.100000*%
%TD*%
%TA.AperFunction,ViaPad*%
%ADD14C,0.800000*%
%TD*%
%TA.AperFunction,Conductor*%
%ADD15C,0.250000*%
%TD*%
G04 APERTURE END LIST*
D10*
%TO.P,J2,1,Pin_1*%
%TO.N,/AIN1*%
X100838000Y-107734000D03*
D11*
%TO.P,J2,2,Pin_2*%
%TO.N,/AIN2*%
X100838000Y-109004000D03*
%TO.P,J2,3,Pin_3*%
%TO.N,/AOUT1*%
X100838000Y-110274000D03*
%TO.P,J2,4,Pin_4*%
%TO.N,/AOUT2*%
X100838000Y-111544000D03*
%TD*%
D10*
%TO.P,J3,1,Pin_1*%
%TO.N,/BIN1*%
X111252000Y-107734000D03*
D11*
%TO.P,J3,2,Pin_2*%
%TO.N,/BIN2*%
X111252000Y-109004000D03*
%TO.P,J3,3,Pin_3*%
%TO.N,/BOUT1*%
X111252000Y-110274000D03*
%TO.P,J3,4,Pin_4*%
%TO.N,/BOUT2*%
X111252000Y-111544000D03*
%TD*%
D12*
%TO.P,U2,17,GND(PPAD)*%
%TO.N,GND*%
X106972000Y-110236000D03*
X105372000Y-109436000D03*
X105372000Y-110236000D03*
X106172000Y-109436000D03*
X106972000Y-111036000D03*
X106172000Y-110236000D03*
X106172000Y-111036000D03*
X105372000Y-111036000D03*
X106972000Y-109436000D03*
D13*
X106172000Y-110236000D03*
%TD*%
D10*
%TO.P,J1,1,Pin_1*%
%TO.N,GND*%
X104272000Y-117602000D03*
D11*
%TO.P,J1,2,Pin_2*%
%TO.N,/Vin*%
X105542000Y-117602000D03*
%TO.P,J1,3,Pin_3*%
%TO.N,/SDA*%
X106812000Y-117602000D03*
%TO.P,J1,4,Pin_4*%
%TO.N,/SCL*%
X108082000Y-117602000D03*
%TD*%
D14*
%TO.N,GND*%
X109931200Y-115824000D03*
X106650636Y-115996411D03*
%TO.N,/Vin*%
X109728000Y-114300000D03*
X109220000Y-106426000D03*
%TO.N,Net-(R5-Pad2)*%
X102616000Y-106172000D03*
X102870000Y-111252000D03*
%TD*%
D15*
%TO.N,GND*%
X109931200Y-115824000D02*
X106823047Y-115824000D01*
X106823047Y-115824000D02*
X106650636Y-115996411D01*
%TO.N,/Vin*%
X109728000Y-114300000D02*
X109728000Y-113792000D01*
X109728000Y-113792000D02*
X109220000Y-113284000D01*
X109220000Y-113284000D02*
X109220000Y-106426000D01*
%TO.N,Net-(R5-Pad2)*%
X102616000Y-106172000D02*
X102616000Y-110998000D01*
X102616000Y-110998000D02*
X102870000Y-111252000D01*
%TD*%
%TA.AperFunction,Conductor*%
%TO.N,GND*%
G36*
X102010358Y-105859502D02*
G01*
X102056851Y-105913158D01*
X102066955Y-105983432D01*
X102058646Y-106013718D01*
X102055313Y-106021764D01*
X102035534Y-106172000D01*
X102055313Y-106322236D01*
X102113302Y-106462233D01*
X102205549Y-106582451D01*
X102266205Y-106628994D01*
X102308072Y-106686332D01*
X102315500Y-106728956D01*
X102315500Y-110945634D01*
X102315304Y-110948307D01*
X102313575Y-110953342D01*
X102314011Y-110964964D01*
X102314011Y-110964966D01*
X102315411Y-111002255D01*
X102315500Y-111006981D01*
X102315500Y-111025948D01*
X102316382Y-111030683D01*
X102316610Y-111034211D01*
X102317362Y-111054244D01*
X102313158Y-111091582D01*
X102312475Y-111094130D01*
X102309313Y-111101764D01*
X102308235Y-111109952D01*
X102308234Y-111109957D01*
X102291789Y-111234875D01*
X102289534Y-111252000D01*
X102309313Y-111402236D01*
X102367302Y-111542233D01*
X102459549Y-111662451D01*
X102579767Y-111754698D01*
X102719764Y-111812687D01*
X102870000Y-111832466D01*
X102878188Y-111831388D01*
X103012048Y-111813765D01*
X103020236Y-111812687D01*
X103160233Y-111754698D01*
X103280451Y-111662451D01*
X103372698Y-111542233D01*
X103430687Y-111402236D01*
X103450466Y-111252000D01*
X103430687Y-111101764D01*
X103401940Y-111032362D01*
X104609966Y-111032362D01*
X104613400Y-111067387D01*
X104614001Y-111079683D01*
X104614001Y-111330669D01*
X104614371Y-111337490D01*
X104619895Y-111388352D01*
X104623521Y-111403604D01*
X104668676Y-111524054D01*
X104677214Y-111539649D01*
X104753715Y-111641724D01*
X104766276Y-111654285D01*
X104868351Y-111730786D01*
X104883946Y-111739324D01*
X105004394Y-111784478D01*
X105019649Y-111788105D01*
X105070514Y-111793631D01*
X105077328Y-111794000D01*
X105312964Y-111794000D01*
X105329628Y-111795107D01*
X105349043Y-111797697D01*
X105363040Y-111797991D01*
X105401187Y-111794519D01*
X105412607Y-111794000D01*
X105899885Y-111794000D01*
X105915124Y-111789525D01*
X105916329Y-111788135D01*
X105918000Y-111780452D01*
X105918000Y-111775884D01*
X106426000Y-111775884D01*
X106430475Y-111791123D01*
X106431865Y-111792328D01*
X106439548Y-111793999D01*
X106912957Y-111793999D01*
X106929622Y-111795106D01*
X106949044Y-111797698D01*
X106963040Y-111797991D01*
X107001195Y-111794518D01*
X107012615Y-111793999D01*
X107266669Y-111793999D01*
X107273490Y-111793629D01*
X107324352Y-111788105D01*
X107339604Y-111784479D01*
X107460054Y-111739324D01*
X107475649Y-111730786D01*
X107577724Y-111654285D01*
X107590285Y-111641724D01*
X107666786Y-111539649D01*
X107675324Y-111524054D01*
X107720478Y-111403606D01*
X107724105Y-111388351D01*
X107729631Y-111337486D01*
X107730000Y-111330672D01*
X107730000Y-111098124D01*
X107731226Y-111080588D01*
X107733948Y-111061222D01*
X107734554Y-111053338D01*
X107734741Y-111039962D01*
X107734354Y-111032062D01*
X107730785Y-111000240D01*
X107730000Y-110986195D01*
X107730000Y-110508115D01*
X107725525Y-110492876D01*
X107724135Y-110491671D01*
X107716452Y-110490000D01*
X107597668Y-110490000D01*
X107586643Y-110493237D01*
X107589881Y-110500328D01*
X107636458Y-110546905D01*
X107670484Y-110609217D01*
X107665419Y-110680032D01*
X107636458Y-110725095D01*
X106661095Y-111700458D01*
X106598783Y-111734484D01*
X106527968Y-111729419D01*
X106482905Y-111700458D01*
X106438812Y-111656365D01*
X106428723Y-111650856D01*
X106426000Y-111658157D01*
X106426000Y-111775884D01*
X105918000Y-111775884D01*
X105918000Y-111661668D01*
X105914763Y-111650643D01*
X105907672Y-111653881D01*
X105861095Y-111700458D01*
X105798783Y-111734484D01*
X105727968Y-111729419D01*
X105682905Y-111700458D01*
X105019579Y-111037132D01*
X105730751Y-111037132D01*
X105730882Y-111038965D01*
X105735133Y-111045580D01*
X105759188Y-111069635D01*
X105773132Y-111077249D01*
X105774965Y-111077118D01*
X105781580Y-111072867D01*
X105805635Y-111048812D01*
X105812013Y-111037132D01*
X106530751Y-111037132D01*
X106530882Y-111038965D01*
X106535133Y-111045580D01*
X106559188Y-111069635D01*
X106573132Y-111077249D01*
X106574965Y-111077118D01*
X106581580Y-111072867D01*
X106605635Y-111048812D01*
X106613249Y-111034868D01*
X106613118Y-111033035D01*
X106608867Y-111026420D01*
X106584812Y-111002365D01*
X106570868Y-110994751D01*
X106569035Y-110994882D01*
X106562420Y-110999133D01*
X106538365Y-111023188D01*
X106530751Y-111037132D01*
X105812013Y-111037132D01*
X105813249Y-111034868D01*
X105813118Y-111033035D01*
X105808867Y-111026420D01*
X105784812Y-111002365D01*
X105770868Y-110994751D01*
X105769035Y-110994882D01*
X105762420Y-110999133D01*
X105738365Y-111023188D01*
X105730751Y-111037132D01*
X105019579Y-111037132D01*
X104707542Y-110725095D01*
X104673516Y-110662783D01*
X104675351Y-110637132D01*
X105330751Y-110637132D01*
X105330882Y-110638965D01*
X105335133Y-110645580D01*
X105359188Y-110669635D01*
X105373132Y-110677249D01*
X105374965Y-110677118D01*
X105381580Y-110672867D01*
X105405636Y-110648811D01*
X105412013Y-110637132D01*
X106930751Y-110637132D01*
X106930882Y-110638965D01*
X106935133Y-110645580D01*
X106959188Y-110669635D01*
X106973132Y-110677249D01*
X106974965Y-110677118D01*
X106981580Y-110672867D01*
X107005636Y-110648811D01*
X107013249Y-110634868D01*
X107013118Y-110633035D01*
X107008867Y-110626420D01*
X106984812Y-110602365D01*
X106970868Y-110594751D01*
X106969035Y-110594882D01*
X106962420Y-110599133D01*
X106938365Y-110623188D01*
X106930751Y-110637132D01*
X105412013Y-110637132D01*
X105413249Y-110634868D01*
X105413118Y-110633035D01*
X105408867Y-110626420D01*
X105384812Y-110602365D01*
X105370868Y-110594751D01*
X105369035Y-110594882D01*
X105362420Y-110599133D01*
X105338365Y-110623188D01*
X105330751Y-110637132D01*
X104675351Y-110637132D01*
X104678581Y-110591968D01*
X104707542Y-110546905D01*
X104751635Y-110502812D01*
X104757144Y-110492723D01*
X104749843Y-110490000D01*
X104632116Y-110490000D01*
X104616877Y-110494475D01*
X104615672Y-110495865D01*
X104614001Y-110503548D01*
X104614001Y-110980040D01*
X104613007Y-110995833D01*
X104610162Y-111018356D01*
X104609966Y-111032362D01*
X103401940Y-111032362D01*
X103372698Y-110961767D01*
X103280451Y-110841549D01*
X103160233Y-110749302D01*
X103090235Y-110720308D01*
X103027866Y-110694473D01*
X103027863Y-110694472D01*
X103020236Y-110691313D01*
X103012047Y-110690235D01*
X103009890Y-110689657D01*
X102949267Y-110652706D01*
X102918245Y-110588846D01*
X102916500Y-110567950D01*
X102916500Y-109432362D01*
X104609966Y-109432362D01*
X104613399Y-109467378D01*
X104614000Y-109479674D01*
X104614000Y-109963885D01*
X104618475Y-109979124D01*
X104619865Y-109980329D01*
X104627548Y-109982000D01*
X104746332Y-109982000D01*
X104757357Y-109978763D01*
X104754119Y-109971672D01*
X104707542Y-109925095D01*
X104673516Y-109862783D01*
X104675351Y-109837132D01*
X105330751Y-109837132D01*
X105330882Y-109838965D01*
X105335133Y-109845580D01*
X105359188Y-109869635D01*
X105373132Y-109877249D01*
X105374965Y-109877118D01*
X105381580Y-109872867D01*
X105405635Y-109848812D01*
X105412013Y-109837132D01*
X106930751Y-109837132D01*
X106930882Y-109838965D01*
X106935133Y-109845580D01*
X106959188Y-109869635D01*
X106973132Y-109877249D01*
X106974965Y-109877118D01*
X106981580Y-109872867D01*
X107005635Y-109848812D01*
X107013249Y-109834868D01*
X107013118Y-109833035D01*
X107008867Y-109826420D01*
X106984812Y-109802365D01*
X106970868Y-109794751D01*
X106969035Y-109794882D01*
X106962420Y-109799133D01*
X106938365Y-109823188D01*
X106930751Y-109837132D01*
X105412013Y-109837132D01*
X105413249Y-109834868D01*
X105413118Y-109833035D01*
X105408867Y-109826420D01*
X105384812Y-109802365D01*
X105370868Y-109794751D01*
X105369035Y-109794882D01*
X105362420Y-109799133D01*
X105338365Y-109823188D01*
X105330751Y-109837132D01*
X104675351Y-109837132D01*
X104678581Y-109791968D01*
X104707542Y-109746905D01*
X105017315Y-109437132D01*
X105730751Y-109437132D01*
X105730882Y-109438965D01*
X105735133Y-109445580D01*
X105759188Y-109469635D01*
X105773132Y-109477249D01*
X105774965Y-109477118D01*
X105781580Y-109472867D01*
X105805635Y-109448812D01*
X105812013Y-109437132D01*
X106530751Y-109437132D01*
X106530882Y-109438965D01*
X106535133Y-109445580D01*
X106559188Y-109469635D01*
X106573132Y-109477249D01*
X106574965Y-109477118D01*
X106581580Y-109472867D01*
X106605635Y-109448812D01*
X106613249Y-109434868D01*
X106613118Y-109433035D01*
X106608867Y-109426420D01*
X106584812Y-109402365D01*
X106570868Y-109394751D01*
X106569035Y-109394882D01*
X106562420Y-109399133D01*
X106538365Y-109423188D01*
X106530751Y-109437132D01*
X105812013Y-109437132D01*
X105813249Y-109434868D01*
X105813118Y-109433035D01*
X105808867Y-109426420D01*
X105784812Y-109402365D01*
X105770868Y-109394751D01*
X105769035Y-109394882D01*
X105762420Y-109399133D01*
X105738365Y-109423188D01*
X105730751Y-109437132D01*
X105017315Y-109437132D01*
X105682905Y-108771542D01*
X105745217Y-108737516D01*
X105816032Y-108742581D01*
X105861095Y-108771542D01*
X105905188Y-108815635D01*
X105915277Y-108821144D01*
X105918000Y-108813843D01*
X105918000Y-108810332D01*
X106426000Y-108810332D01*
X106429237Y-108821357D01*
X106436328Y-108818119D01*
X106482905Y-108771542D01*
X106545217Y-108737516D01*
X106616032Y-108742581D01*
X106661095Y-108771542D01*
X107636458Y-109746905D01*
X107670484Y-109809217D01*
X107665419Y-109880032D01*
X107636458Y-109925095D01*
X107592365Y-109969188D01*
X107586856Y-109979277D01*
X107594157Y-109982000D01*
X107711884Y-109982000D01*
X107727123Y-109977525D01*
X107728328Y-109976135D01*
X107729999Y-109968452D01*
X107729999Y-109498130D01*
X107731225Y-109480593D01*
X107733948Y-109461219D01*
X107734554Y-109453340D01*
X107734741Y-109439962D01*
X107734354Y-109432062D01*
X107730784Y-109400233D01*
X107729999Y-109386188D01*
X107729999Y-109141331D01*
X107729629Y-109134510D01*
X107724105Y-109083648D01*
X107720479Y-109068396D01*
X107675324Y-108947946D01*
X107666786Y-108932351D01*
X107590285Y-108830276D01*
X107577724Y-108817715D01*
X107475649Y-108741214D01*
X107460054Y-108732676D01*
X107339606Y-108687522D01*
X107324351Y-108683895D01*
X107273486Y-108678369D01*
X107266672Y-108678000D01*
X107024875Y-108678000D01*
X107009957Y-108677114D01*
X106984318Y-108674057D01*
X106970320Y-108673959D01*
X106938437Y-108677310D01*
X106925267Y-108678000D01*
X106444115Y-108678000D01*
X106428876Y-108682475D01*
X106427671Y-108683865D01*
X106426000Y-108691548D01*
X106426000Y-108810332D01*
X105918000Y-108810332D01*
X105918000Y-108696116D01*
X105913525Y-108680877D01*
X105912135Y-108679672D01*
X105904452Y-108678001D01*
X105424883Y-108678001D01*
X105409964Y-108677115D01*
X105384318Y-108674057D01*
X105370321Y-108673959D01*
X105338430Y-108677311D01*
X105325260Y-108678001D01*
X105077331Y-108678001D01*
X105070510Y-108678371D01*
X105019648Y-108683895D01*
X105004396Y-108687521D01*
X104883946Y-108732676D01*
X104868351Y-108741214D01*
X104766276Y-108817715D01*
X104753715Y-108830276D01*
X104677214Y-108932351D01*
X104668676Y-108947946D01*
X104623522Y-109068394D01*
X104619895Y-109083649D01*
X104614369Y-109134514D01*
X104614000Y-109141328D01*
X104614000Y-109380047D01*
X104613007Y-109395839D01*
X104610161Y-109418365D01*
X104609966Y-109432362D01*
X102916500Y-109432362D01*
X102916500Y-107617500D01*
X104567500Y-107617500D01*
X106093500Y-107617500D01*
X106093500Y-106907600D01*
X104567500Y-106907600D01*
X104567500Y-107617500D01*
X102916500Y-107617500D01*
X102916500Y-106728956D01*
X102936502Y-106660835D01*
X102965795Y-106628994D01*
X103026451Y-106582451D01*
X103118698Y-106462233D01*
X103176687Y-106322236D01*
X103196466Y-106172000D01*
X103176687Y-106021764D01*
X103173355Y-106013719D01*
X103173314Y-106013341D01*
X103171389Y-106006156D01*
X103172509Y-106005856D01*
X103165764Y-105943131D01*
X103197542Y-105879644D01*
X103258599Y-105843415D01*
X103289763Y-105839500D01*
X108689134Y-105839500D01*
X108757255Y-105859502D01*
X108803748Y-105913158D01*
X108813852Y-105983432D01*
X108789096Y-106042203D01*
X108717302Y-106135767D01*
X108659313Y-106275764D01*
X108639534Y-106426000D01*
X108659313Y-106576236D01*
X108717302Y-106716233D01*
X108809549Y-106836451D01*
X108870205Y-106882994D01*
X108912072Y-106940332D01*
X108919500Y-106982956D01*
X108919500Y-113231634D01*
X108919304Y-113234307D01*
X108917575Y-113239342D01*
X108918011Y-113250964D01*
X108918011Y-113250966D01*
X108919411Y-113288255D01*
X108919500Y-113292981D01*
X108919500Y-113311948D01*
X108920382Y-113316683D01*
X108920610Y-113320209D01*
X108921774Y-113351208D01*
X108926364Y-113361893D01*
X108927401Y-113366493D01*
X108930962Y-113378214D01*
X108932661Y-113382617D01*
X108934791Y-113394053D01*
X108940895Y-113403955D01*
X108947727Y-113415039D01*
X108956231Y-113431411D01*
X108962451Y-113445888D01*
X108962453Y-113445892D01*
X108965964Y-113454063D01*
X108969978Y-113458949D01*
X108972163Y-113461134D01*
X108974215Y-113463397D01*
X108974055Y-113463542D01*
X108981175Y-113472549D01*
X108987427Y-113479444D01*
X108993532Y-113489348D01*
X109015320Y-113505916D01*
X109028139Y-113517110D01*
X109275464Y-113764435D01*
X109309490Y-113826747D01*
X109304425Y-113897562D01*
X109286335Y-113930227D01*
X109225302Y-114009767D01*
X109167313Y-114149764D01*
X109147534Y-114300000D01*
X109167313Y-114450236D01*
X109225302Y-114590233D01*
X109317549Y-114710451D01*
X109437767Y-114802698D01*
X109577764Y-114860687D01*
X109728000Y-114880466D01*
X109736188Y-114879388D01*
X109870048Y-114861765D01*
X109878236Y-114860687D01*
X110018233Y-114802698D01*
X110138451Y-114710451D01*
X110230698Y-114590233D01*
X110288687Y-114450236D01*
X110308466Y-114300000D01*
X110288687Y-114149764D01*
X110230698Y-114009767D01*
X110138451Y-113889549D01*
X110121625Y-113876638D01*
X110076250Y-113841820D01*
X110034383Y-113784482D01*
X110027043Y-113746584D01*
X110026676Y-113736805D01*
X110026225Y-113724791D01*
X110021632Y-113714100D01*
X110020593Y-113709491D01*
X110017035Y-113697780D01*
X110015339Y-113693384D01*
X110013209Y-113681947D01*
X110000273Y-113660961D01*
X109991762Y-113644576D01*
X109985549Y-113630113D01*
X109985548Y-113630111D01*
X109982036Y-113621937D01*
X109978022Y-113617051D01*
X109975842Y-113614871D01*
X109973785Y-113612603D01*
X109973945Y-113612458D01*
X109966825Y-113603451D01*
X109960573Y-113596556D01*
X109954468Y-113586652D01*
X109932680Y-113570084D01*
X109919861Y-113558890D01*
X109557405Y-113196434D01*
X109523379Y-113134122D01*
X109520500Y-113107339D01*
X109520500Y-111536874D01*
X110571576Y-111536874D01*
X110589518Y-111699384D01*
X110592127Y-111706515D01*
X110592128Y-111706517D01*
X110630981Y-111812687D01*
X110645705Y-111852923D01*
X110649941Y-111859226D01*
X110649941Y-111859227D01*
X110732660Y-111982327D01*
X110732663Y-111982330D01*
X110736894Y-111988627D01*
X110857822Y-112098663D01*
X110886410Y-112114185D01*
X110994829Y-112173052D01*
X110994831Y-112173053D01*
X111001506Y-112176677D01*
X111008855Y-112178605D01*
X111152301Y-112216237D01*
X111152303Y-112216237D01*
X111159651Y-112218165D01*
X111242932Y-112219473D01*
X111315529Y-112220614D01*
X111315532Y-112220614D01*
X111323128Y-112220733D01*
X111330533Y-112219037D01*
X111330534Y-112219037D01*
X111475097Y-112185928D01*
X111482498Y-112184233D01*
X111628561Y-112110770D01*
X111752885Y-112004588D01*
X111764355Y-111988627D01*
X111843861Y-111877983D01*
X111843862Y-111877982D01*
X111848293Y-111871815D01*
X111909275Y-111720116D01*
X111932312Y-111558250D01*
X111932461Y-111544000D01*
X111931935Y-111539649D01*
X111915471Y-111403604D01*
X111912819Y-111381687D01*
X111855027Y-111228745D01*
X111773386Y-111109957D01*
X111766723Y-111100262D01*
X111766722Y-111100261D01*
X111762421Y-111094003D01*
X111756450Y-111088683D01*
X111659632Y-111002421D01*
X111622076Y-110942171D01*
X111623056Y-110871181D01*
X111661619Y-110812536D01*
X111752885Y-110734588D01*
X111759707Y-110725095D01*
X111843861Y-110607983D01*
X111843862Y-110607982D01*
X111848293Y-110601815D01*
X111909275Y-110450116D01*
X111932312Y-110288250D01*
X111932461Y-110274000D01*
X111930688Y-110259343D01*
X111913731Y-110119227D01*
X111912819Y-110111687D01*
X111855027Y-109958745D01*
X111798926Y-109877118D01*
X111766723Y-109830262D01*
X111766722Y-109830261D01*
X111762421Y-109824003D01*
X111756450Y-109818683D01*
X111659632Y-109732421D01*
X111622076Y-109672171D01*
X111623056Y-109601181D01*
X111661619Y-109542536D01*
X111752885Y-109464588D01*
X111764222Y-109448812D01*
X111843861Y-109337983D01*
X111843862Y-109337982D01*
X111848293Y-109331815D01*
X111909275Y-109180116D01*
X111932312Y-109018250D01*
X111932461Y-109004000D01*
X111930688Y-108989343D01*
X111913731Y-108849227D01*
X111912819Y-108841687D01*
X111855027Y-108688745D01*
X111779261Y-108578505D01*
X111757161Y-108511036D01*
X111775046Y-108442329D01*
X111820938Y-108400007D01*
X111820477Y-108399317D01*
X111878528Y-108360528D01*
X111917317Y-108302477D01*
X111927500Y-108251284D01*
X111927500Y-107216716D01*
X111917317Y-107165523D01*
X111878528Y-107107472D01*
X111820477Y-107068683D01*
X111769284Y-107058500D01*
X110734716Y-107058500D01*
X110683523Y-107068683D01*
X110625472Y-107107472D01*
X110586683Y-107165523D01*
X110576500Y-107216716D01*
X110576500Y-108251284D01*
X110586683Y-108302477D01*
X110625472Y-108360528D01*
X110635785Y-108367419D01*
X110683523Y-108399317D01*
X110682291Y-108401160D01*
X110724873Y-108435476D01*
X110747293Y-108502840D01*
X110729734Y-108571631D01*
X110724459Y-108579786D01*
X110656679Y-108676226D01*
X110656676Y-108676231D01*
X110652307Y-108682448D01*
X110592917Y-108834776D01*
X110591926Y-108842303D01*
X110578018Y-108947946D01*
X110571576Y-108996874D01*
X110579472Y-109068394D01*
X110587525Y-109141331D01*
X110589518Y-109159384D01*
X110592127Y-109166515D01*
X110592128Y-109166517D01*
X110597105Y-109180116D01*
X110645705Y-109312923D01*
X110649941Y-109319226D01*
X110649941Y-109319227D01*
X110732660Y-109442327D01*
X110732663Y-109442330D01*
X110736894Y-109448627D01*
X110742507Y-109453735D01*
X110742511Y-109453739D01*
X110844538Y-109546576D01*
X110881461Y-109607216D01*
X110879738Y-109678192D01*
X110842570Y-109734718D01*
X110746319Y-109818683D01*
X110652307Y-109952448D01*
X110592917Y-110104776D01*
X110571576Y-110266874D01*
X110589518Y-110429384D01*
X110592127Y-110436515D01*
X110592128Y-110436517D01*
X110640226Y-110567950D01*
X110645705Y-110582923D01*
X110649941Y-110589226D01*
X110649941Y-110589227D01*
X110732660Y-110712327D01*
X110732663Y-110712330D01*
X110736894Y-110718627D01*
X110742507Y-110723735D01*
X110742511Y-110723739D01*
X110844538Y-110816576D01*
X110881461Y-110877216D01*
X110879738Y-110948192D01*
X110842570Y-111004718D01*
X110746319Y-111088683D01*
X110652307Y-111222448D01*
X110592917Y-111374776D01*
X110591926Y-111382303D01*
X110573264Y-111524054D01*
X110571576Y-111536874D01*
X109520500Y-111536874D01*
X109520500Y-106982956D01*
X109540502Y-106914835D01*
X109569795Y-106882994D01*
X109630451Y-106836451D01*
X109722698Y-106716233D01*
X109780687Y-106576236D01*
X109800466Y-106426000D01*
X109780687Y-106275764D01*
X109722698Y-106135767D01*
X109650904Y-106042203D01*
X109625303Y-105975984D01*
X109639567Y-105906435D01*
X109689169Y-105855639D01*
X109750866Y-105839500D01*
X111725761Y-105839500D01*
X111737373Y-105840818D01*
X111745856Y-105840833D01*
X111759686Y-105844013D01*
X111773041Y-105840992D01*
X111781191Y-105841354D01*
X111850973Y-105847459D01*
X111917090Y-105873323D01*
X111929085Y-105883885D01*
X112810115Y-106764915D01*
X112844141Y-106827227D01*
X112846540Y-106843024D01*
X112852680Y-106913206D01*
X112852997Y-106920597D01*
X112849987Y-106933686D01*
X112853118Y-106947525D01*
X112853105Y-106955225D01*
X112854500Y-106967707D01*
X112854500Y-117061124D01*
X112834498Y-117129245D01*
X112780842Y-117175738D01*
X112710568Y-117185842D01*
X112645988Y-117156348D01*
X112639405Y-117150219D01*
X112497539Y-117008353D01*
X112311134Y-116877832D01*
X112306156Y-116875511D01*
X112306153Y-116875509D01*
X112109878Y-116783984D01*
X112109876Y-116783983D01*
X112104896Y-116781661D01*
X112099588Y-116780239D01*
X112099586Y-116780238D01*
X111890407Y-116724189D01*
X111890405Y-116724189D01*
X111885092Y-116722765D01*
X111786098Y-116714104D01*
X111717908Y-116708138D01*
X111717901Y-116708138D01*
X111715184Y-116707900D01*
X111601616Y-116707900D01*
X111598899Y-116708138D01*
X111598892Y-116708138D01*
X111530702Y-116714104D01*
X111431708Y-116722765D01*
X111426395Y-116724189D01*
X111426393Y-116724189D01*
X111217214Y-116780238D01*
X111217212Y-116780239D01*
X111211904Y-116781661D01*
X111206924Y-116783983D01*
X111206922Y-116783984D01*
X111010647Y-116875509D01*
X111010644Y-116875511D01*
X111005666Y-116877832D01*
X110819261Y-117008353D01*
X110658353Y-117169261D01*
X110527832Y-117355666D01*
X110525511Y-117360644D01*
X110525509Y-117360647D01*
X110513100Y-117387259D01*
X110431661Y-117561904D01*
X110430239Y-117567212D01*
X110430238Y-117567214D01*
X110375742Y-117770597D01*
X110372765Y-117781708D01*
X110352932Y-118008400D01*
X110372765Y-118235092D01*
X110374189Y-118240405D01*
X110374189Y-118240407D01*
X110384459Y-118278733D01*
X110431661Y-118454896D01*
X110433983Y-118459876D01*
X110433984Y-118459878D01*
X110503988Y-118610000D01*
X110527832Y-118661134D01*
X110658353Y-118847539D01*
X110800219Y-118989405D01*
X110834245Y-119051717D01*
X110829180Y-119122532D01*
X110786633Y-119179368D01*
X110720113Y-119204179D01*
X110711124Y-119204500D01*
X101328076Y-119204500D01*
X101259955Y-119184498D01*
X101213462Y-119130842D01*
X101203358Y-119060568D01*
X101232852Y-118995988D01*
X101238981Y-118989405D01*
X101380847Y-118847539D01*
X101511368Y-118661134D01*
X101535213Y-118610000D01*
X101605216Y-118459878D01*
X101605217Y-118459876D01*
X101607539Y-118454896D01*
X101654742Y-118278733D01*
X101665011Y-118240407D01*
X101665011Y-118240405D01*
X101666435Y-118235092D01*
X101674171Y-118146669D01*
X103264001Y-118146669D01*
X103264371Y-118153490D01*
X103269895Y-118204352D01*
X103273521Y-118219604D01*
X103318676Y-118340054D01*
X103327214Y-118355649D01*
X103403715Y-118457724D01*
X103416276Y-118470285D01*
X103518351Y-118546786D01*
X103533946Y-118555324D01*
X103654394Y-118600478D01*
X103669649Y-118604105D01*
X103720514Y-118609631D01*
X103727328Y-118610000D01*
X103999885Y-118610000D01*
X104015124Y-118605525D01*
X104016329Y-118604135D01*
X104018000Y-118596452D01*
X104018000Y-118591884D01*
X104526000Y-118591884D01*
X104530475Y-118607123D01*
X104531865Y-118608328D01*
X104539548Y-118609999D01*
X104816669Y-118609999D01*
X104823490Y-118609629D01*
X104874352Y-118604105D01*
X104889604Y-118600479D01*
X105010054Y-118555324D01*
X105025649Y-118546786D01*
X105127724Y-118470285D01*
X105140285Y-118457724D01*
X105216786Y-118355649D01*
X105225325Y-118340052D01*
X105227288Y-118334816D01*
X105269929Y-118278051D01*
X105336491Y-118253351D01*
X105377240Y-118257169D01*
X105449651Y-118276165D01*
X105532932Y-118277473D01*
X105605529Y-118278614D01*
X105605532Y-118278614D01*
X105613128Y-118278733D01*
X105620533Y-118277037D01*
X105620534Y-118277037D01*
X105765097Y-118243928D01*
X105772498Y-118242233D01*
X105918561Y-118168770D01*
X106042885Y-118062588D01*
X106050684Y-118051735D01*
X106073898Y-118019430D01*
X106129892Y-117975782D01*
X106200596Y-117969336D01*
X106263560Y-118002139D01*
X106280801Y-118022679D01*
X106292659Y-118040325D01*
X106296894Y-118046627D01*
X106417822Y-118156663D01*
X106446410Y-118172185D01*
X106554829Y-118231052D01*
X106554831Y-118231053D01*
X106561506Y-118234677D01*
X106568855Y-118236605D01*
X106712301Y-118274237D01*
X106712303Y-118274237D01*
X106719651Y-118276165D01*
X106802932Y-118277473D01*
X106875529Y-118278614D01*
X106875532Y-118278614D01*
X106883128Y-118278733D01*
X106890533Y-118277037D01*
X106890534Y-118277037D01*
X107035097Y-118243928D01*
X107042498Y-118242233D01*
X107188561Y-118168770D01*
X107312885Y-118062588D01*
X107320684Y-118051735D01*
X107343898Y-118019430D01*
X107399892Y-117975782D01*
X107470596Y-117969336D01*
X107533560Y-118002139D01*
X107550801Y-118022679D01*
X107562659Y-118040325D01*
X107566894Y-118046627D01*
X107687822Y-118156663D01*
X107716410Y-118172185D01*
X107824829Y-118231052D01*
X107824831Y-118231053D01*
X107831506Y-118234677D01*
X107838855Y-118236605D01*
X107982301Y-118274237D01*
X107982303Y-118274237D01*
X107989651Y-118276165D01*
X108072932Y-118277473D01*
X108145529Y-118278614D01*
X108145532Y-118278614D01*
X108153128Y-118278733D01*
X108160533Y-118277037D01*
X108160534Y-118277037D01*
X108305097Y-118243928D01*
X108312498Y-118242233D01*
X108458561Y-118168770D01*
X108582885Y-118062588D01*
X108594355Y-118046627D01*
X108673861Y-117935983D01*
X108673862Y-117935982D01*
X108678293Y-117929815D01*
X108739275Y-117778116D01*
X108762312Y-117616250D01*
X108762461Y-117602000D01*
X108758252Y-117567214D01*
X108754465Y-117535925D01*
X108742819Y-117439687D01*
X108685027Y-117286745D01*
X108592421Y-117152003D01*
X108470348Y-117043240D01*
X108463638Y-117039687D01*
X108332566Y-116970288D01*
X108332564Y-116970287D01*
X108325855Y-116966735D01*
X108249054Y-116947444D01*
X108174655Y-116928756D01*
X108174651Y-116928756D01*
X108167284Y-116926905D01*
X108159685Y-116926865D01*
X108159683Y-116926865D01*
X108091653Y-116926509D01*
X108003790Y-116926049D01*
X107996410Y-116927821D01*
X107996408Y-116927821D01*
X107852189Y-116962444D01*
X107852185Y-116962445D01*
X107844810Y-116964216D01*
X107699524Y-117039204D01*
X107693802Y-117044196D01*
X107693800Y-117044197D01*
X107582044Y-117141688D01*
X107582041Y-117141691D01*
X107576319Y-117146683D01*
X107571952Y-117152896D01*
X107571948Y-117152901D01*
X107550346Y-117183638D01*
X107494812Y-117227870D01*
X107424180Y-117235056D01*
X107360875Y-117202915D01*
X107343422Y-117182559D01*
X107322421Y-117152003D01*
X107200348Y-117043240D01*
X107193638Y-117039687D01*
X107062566Y-116970288D01*
X107062564Y-116970287D01*
X107055855Y-116966735D01*
X106979054Y-116947444D01*
X106904655Y-116928756D01*
X106904651Y-116928756D01*
X106897284Y-116926905D01*
X106889685Y-116926865D01*
X106889683Y-116926865D01*
X106821653Y-116926509D01*
X106733790Y-116926049D01*
X106726410Y-116927821D01*
X106726408Y-116927821D01*
X106582189Y-116962444D01*
X106582185Y-116962445D01*
X106574810Y-116964216D01*
X106429524Y-117039204D01*
X106423802Y-117044196D01*
X106423800Y-117044197D01*
X106312044Y-117141688D01*
X106312041Y-117141691D01*
X106306319Y-117146683D01*
X106301952Y-117152896D01*
X106301948Y-117152901D01*
X106280346Y-117183638D01*
X106224812Y-117227870D01*
X106154180Y-117235056D01*
X106090875Y-117202915D01*
X106073422Y-117182559D01*
X106052421Y-117152003D01*
X105930348Y-117043240D01*
X105923638Y-117039687D01*
X105792566Y-116970288D01*
X105792564Y-116970287D01*
X105785855Y-116966735D01*
X105709054Y-116947444D01*
X105634655Y-116928756D01*
X105634651Y-116928756D01*
X105627284Y-116926905D01*
X105619685Y-116926865D01*
X105619683Y-116926865D01*
X105551653Y-116926509D01*
X105463790Y-116926049D01*
X105456410Y-116927821D01*
X105456408Y-116927821D01*
X105374672Y-116947444D01*
X105303764Y-116943897D01*
X105246030Y-116902577D01*
X105227275Y-116869151D01*
X105225322Y-116863941D01*
X105216790Y-116848356D01*
X105140285Y-116746276D01*
X105127724Y-116733715D01*
X105025649Y-116657214D01*
X105010054Y-116648676D01*
X104889606Y-116603522D01*
X104874351Y-116599895D01*
X104823486Y-116594369D01*
X104816672Y-116594000D01*
X104544115Y-116594000D01*
X104528876Y-116598475D01*
X104527671Y-116599865D01*
X104526000Y-116607548D01*
X104526000Y-118591884D01*
X104018000Y-118591884D01*
X104018000Y-117874115D01*
X104013525Y-117858876D01*
X104012135Y-117857671D01*
X104004452Y-117856000D01*
X103282116Y-117856000D01*
X103266877Y-117860475D01*
X103265672Y-117861865D01*
X103264001Y-117869548D01*
X103264001Y-118146669D01*
X101674171Y-118146669D01*
X101686268Y-118008400D01*
X101666435Y-117781708D01*
X101663458Y-117770597D01*
X101608962Y-117567214D01*
X101608961Y-117567212D01*
X101607539Y-117561904D01*
X101526100Y-117387259D01*
X101513691Y-117360647D01*
X101513689Y-117360644D01*
X101511368Y-117355666D01*
X101493316Y-117329885D01*
X103264000Y-117329885D01*
X103268475Y-117345124D01*
X103269865Y-117346329D01*
X103277548Y-117348000D01*
X103999885Y-117348000D01*
X104015124Y-117343525D01*
X104016329Y-117342135D01*
X104018000Y-117334452D01*
X104018000Y-116612116D01*
X104013525Y-116596877D01*
X104012135Y-116595672D01*
X104004452Y-116594001D01*
X103727331Y-116594001D01*
X103720510Y-116594371D01*
X103669648Y-116599895D01*
X103654396Y-116603521D01*
X103533946Y-116648676D01*
X103518351Y-116657214D01*
X103416276Y-116733715D01*
X103403715Y-116746276D01*
X103327214Y-116848351D01*
X103318676Y-116863946D01*
X103273522Y-116984394D01*
X103269895Y-116999649D01*
X103264369Y-117050514D01*
X103264000Y-117057328D01*
X103264000Y-117329885D01*
X101493316Y-117329885D01*
X101380847Y-117169261D01*
X101219939Y-117008353D01*
X101033534Y-116877832D01*
X101028556Y-116875511D01*
X101028553Y-116875509D01*
X100832278Y-116783984D01*
X100832276Y-116783983D01*
X100827296Y-116781661D01*
X100821988Y-116780239D01*
X100821986Y-116780238D01*
X100612807Y-116724189D01*
X100612805Y-116724189D01*
X100607492Y-116722765D01*
X100508498Y-116714104D01*
X100440308Y-116708138D01*
X100440301Y-116708138D01*
X100437584Y-116707900D01*
X100324016Y-116707900D01*
X100321299Y-116708138D01*
X100321292Y-116708138D01*
X100253102Y-116714104D01*
X100154108Y-116722765D01*
X100148795Y-116724189D01*
X100148793Y-116724189D01*
X99939614Y-116780238D01*
X99939612Y-116780239D01*
X99934304Y-116781661D01*
X99929324Y-116783983D01*
X99929322Y-116783984D01*
X99733047Y-116875509D01*
X99733044Y-116875511D01*
X99728066Y-116877832D01*
X99541661Y-117008353D01*
X99450595Y-117099419D01*
X99388283Y-117133445D01*
X99317468Y-117128380D01*
X99260632Y-117085833D01*
X99235821Y-117019313D01*
X99235500Y-117010324D01*
X99235500Y-115237500D01*
X100303600Y-115237500D01*
X101013500Y-115237500D01*
X102027500Y-115237500D01*
X103553500Y-115237500D01*
X104567500Y-115237500D01*
X105543752Y-115237500D01*
X105612355Y-115139525D01*
X105626473Y-115122701D01*
X105776926Y-114972248D01*
X105793750Y-114958130D01*
X105968043Y-114836088D01*
X105987065Y-114825106D01*
X106093500Y-114775475D01*
X106093500Y-114730136D01*
X107107500Y-114730136D01*
X107121370Y-114735185D01*
X107314208Y-114825106D01*
X107333230Y-114836088D01*
X107507522Y-114958130D01*
X107524346Y-114972248D01*
X107674799Y-115122701D01*
X107688917Y-115139525D01*
X107757520Y-115237500D01*
X108443849Y-115237500D01*
X108420844Y-115207519D01*
X108416041Y-115200817D01*
X108360670Y-115117949D01*
X108356317Y-115110949D01*
X108339870Y-115082463D01*
X108335983Y-115075191D01*
X108291892Y-114985787D01*
X108288488Y-114978275D01*
X108230499Y-114838278D01*
X108227595Y-114830561D01*
X108195554Y-114736169D01*
X108193160Y-114728278D01*
X108184647Y-114696506D01*
X108182775Y-114688477D01*
X108163331Y-114590724D01*
X108161988Y-114582589D01*
X108142209Y-114432353D01*
X108141401Y-114424148D01*
X108134882Y-114324687D01*
X108134612Y-114316446D01*
X108134612Y-114283554D01*
X108134882Y-114275313D01*
X108141401Y-114175852D01*
X108142209Y-114167647D01*
X108156210Y-114061296D01*
X108114942Y-114003152D01*
X108110061Y-113995734D01*
X108091653Y-113965490D01*
X108087307Y-113957748D01*
X108038110Y-113862385D01*
X108034321Y-113854358D01*
X108027194Y-113837770D01*
X108003737Y-113790464D01*
X107999070Y-113779850D01*
X107982460Y-113736805D01*
X107978788Y-113725807D01*
X107974733Y-113711500D01*
X107107500Y-113711500D01*
X107107500Y-114730136D01*
X106093500Y-114730136D01*
X106093500Y-113711500D01*
X104567500Y-113711500D01*
X104567500Y-115237500D01*
X103553500Y-115237500D01*
X103553500Y-113711500D01*
X102027500Y-113711500D01*
X102027500Y-115237500D01*
X101013500Y-115237500D01*
X101013500Y-113711500D01*
X100303600Y-113711500D01*
X100303600Y-115237500D01*
X99235500Y-115237500D01*
X99235500Y-111536874D01*
X100157576Y-111536874D01*
X100175518Y-111699384D01*
X100178127Y-111706515D01*
X100178128Y-111706517D01*
X100216981Y-111812687D01*
X100231705Y-111852923D01*
X100235941Y-111859226D01*
X100235941Y-111859227D01*
X100318660Y-111982327D01*
X100318663Y-111982330D01*
X100322894Y-111988627D01*
X100443822Y-112098663D01*
X100472410Y-112114185D01*
X100580829Y-112173052D01*
X100580831Y-112173053D01*
X100587506Y-112176677D01*
X100594855Y-112178605D01*
X100738301Y-112216237D01*
X100738303Y-112216237D01*
X100745651Y-112218165D01*
X100828932Y-112219473D01*
X100901529Y-112220614D01*
X100901532Y-112220614D01*
X100909128Y-112220733D01*
X100916533Y-112219037D01*
X100916534Y-112219037D01*
X101061097Y-112185928D01*
X101068498Y-112184233D01*
X101214561Y-112110770D01*
X101338885Y-112004588D01*
X101350355Y-111988627D01*
X101429861Y-111877983D01*
X101429862Y-111877982D01*
X101434293Y-111871815D01*
X101495275Y-111720116D01*
X101518312Y-111558250D01*
X101518461Y-111544000D01*
X101517935Y-111539649D01*
X101501471Y-111403604D01*
X101498819Y-111381687D01*
X101441027Y-111228745D01*
X101359386Y-111109957D01*
X101352723Y-111100262D01*
X101352722Y-111100261D01*
X101348421Y-111094003D01*
X101342450Y-111088683D01*
X101245632Y-111002421D01*
X101208076Y-110942171D01*
X101209056Y-110871181D01*
X101247619Y-110812536D01*
X101338885Y-110734588D01*
X101345707Y-110725095D01*
X101429861Y-110607983D01*
X101429862Y-110607982D01*
X101434293Y-110601815D01*
X101495275Y-110450116D01*
X101518312Y-110288250D01*
X101518461Y-110274000D01*
X101516688Y-110259343D01*
X101499731Y-110119227D01*
X101498819Y-110111687D01*
X101441027Y-109958745D01*
X101384926Y-109877118D01*
X101352723Y-109830262D01*
X101352722Y-109830261D01*
X101348421Y-109824003D01*
X101342450Y-109818683D01*
X101245632Y-109732421D01*
X101208076Y-109672171D01*
X101209056Y-109601181D01*
X101247619Y-109542536D01*
X101338885Y-109464588D01*
X101350222Y-109448812D01*
X101429861Y-109337983D01*
X101429862Y-109337982D01*
X101434293Y-109331815D01*
X101495275Y-109180116D01*
X101518312Y-109018250D01*
X101518461Y-109004000D01*
X101516688Y-108989343D01*
X101499731Y-108849227D01*
X101498819Y-108841687D01*
X101441027Y-108688745D01*
X101365261Y-108578505D01*
X101343161Y-108511036D01*
X101361046Y-108442329D01*
X101406938Y-108400007D01*
X101406477Y-108399317D01*
X101464528Y-108360528D01*
X101503317Y-108302477D01*
X101513500Y-108251284D01*
X101513500Y-107216716D01*
X101503317Y-107165523D01*
X101464528Y-107107472D01*
X101406477Y-107068683D01*
X101355284Y-107058500D01*
X100320716Y-107058500D01*
X100269523Y-107068683D01*
X100211472Y-107107472D01*
X100172683Y-107165523D01*
X100162500Y-107216716D01*
X100162500Y-108251284D01*
X100172683Y-108302477D01*
X100211472Y-108360528D01*
X100221785Y-108367419D01*
X100269523Y-108399317D01*
X100268291Y-108401160D01*
X100310873Y-108435476D01*
X100333293Y-108502840D01*
X100315734Y-108571631D01*
X100310459Y-108579786D01*
X100242679Y-108676226D01*
X100242676Y-108676231D01*
X100238307Y-108682448D01*
X100178917Y-108834776D01*
X100177926Y-108842303D01*
X100164018Y-108947946D01*
X100157576Y-108996874D01*
X100165472Y-109068394D01*
X100173525Y-109141331D01*
X100175518Y-109159384D01*
X100178127Y-109166515D01*
X100178128Y-109166517D01*
X100183105Y-109180116D01*
X100231705Y-109312923D01*
X100235941Y-109319226D01*
X100235941Y-109319227D01*
X100318660Y-109442327D01*
X100318663Y-109442330D01*
X100322894Y-109448627D01*
X100328507Y-109453735D01*
X100328511Y-109453739D01*
X100430538Y-109546576D01*
X100467461Y-109607216D01*
X100465738Y-109678192D01*
X100428570Y-109734718D01*
X100332319Y-109818683D01*
X100238307Y-109952448D01*
X100178917Y-110104776D01*
X100157576Y-110266874D01*
X100175518Y-110429384D01*
X100178127Y-110436515D01*
X100178128Y-110436517D01*
X100226226Y-110567950D01*
X100231705Y-110582923D01*
X100235941Y-110589226D01*
X100235941Y-110589227D01*
X100318660Y-110712327D01*
X100318663Y-110712330D01*
X100322894Y-110718627D01*
X100328507Y-110723735D01*
X100328511Y-110723739D01*
X100430538Y-110816576D01*
X100467461Y-110877216D01*
X100465738Y-110948192D01*
X100428570Y-111004718D01*
X100332319Y-111088683D01*
X100238307Y-111222448D01*
X100178917Y-111374776D01*
X100177926Y-111382303D01*
X100159264Y-111524054D01*
X100157576Y-111536874D01*
X99235500Y-111536874D01*
X99235500Y-106968506D01*
X99237768Y-106948682D01*
X99237586Y-106948661D01*
X99238403Y-106941569D01*
X99240012Y-106934628D01*
X99240013Y-106934000D01*
X99238517Y-106927440D01*
X99238220Y-106902905D01*
X99239962Y-106882994D01*
X99242964Y-106848688D01*
X99268826Y-106782572D01*
X99281390Y-106768618D01*
X99285262Y-106764915D01*
X99896567Y-106180188D01*
X100212963Y-105877549D01*
X100276016Y-105844917D01*
X100289071Y-105843082D01*
X100309191Y-105841321D01*
X100316598Y-105841004D01*
X100329686Y-105844013D01*
X100343525Y-105840882D01*
X100351225Y-105840895D01*
X100363707Y-105839500D01*
X101942237Y-105839500D01*
X102010358Y-105859502D01*
G37*
%TD.AperFunction*%
%TD*%
M02*
