%TF.GenerationSoftware,KiCad,Pcbnew,(6.0.9)*%
%TF.CreationDate,2023-01-19T16:03:38-06:00*%
%TF.ProjectId,LIS3MDL_DRV8833_Board,4c495333-4d44-44c5-9f44-525638383333,rev?*%
%TF.SameCoordinates,Original*%
%TF.FileFunction,Legend,Bot*%
%TF.FilePolarity,Positive*%
%FSLAX46Y46*%
G04 Gerber Fmt 4.6, Leading zero omitted, Abs format (unit mm)*
G04 Created by KiCad (PCBNEW (6.0.9)) date 2023-01-19 16:03:38*
%MOMM*%
%LPD*%
G01*
G04 APERTURE LIST*
%ADD10C,0.033500*%
G04 APERTURE END LIST*
D10*
X108404780Y-118771609D02*
X108368495Y-118783704D01*
X108308019Y-118783704D01*
X108283828Y-118771609D01*
X108271733Y-118759514D01*
X108259638Y-118735323D01*
X108259638Y-118711133D01*
X108271733Y-118686942D01*
X108283828Y-118674847D01*
X108308019Y-118662752D01*
X108356400Y-118650657D01*
X108380590Y-118638561D01*
X108392685Y-118626466D01*
X108404780Y-118602276D01*
X108404780Y-118578085D01*
X108392685Y-118553895D01*
X108380590Y-118541800D01*
X108356400Y-118529704D01*
X108295923Y-118529704D01*
X108259638Y-118541800D01*
X108005638Y-118759514D02*
X108017733Y-118771609D01*
X108054019Y-118783704D01*
X108078209Y-118783704D01*
X108114495Y-118771609D01*
X108138685Y-118747419D01*
X108150780Y-118723228D01*
X108162876Y-118674847D01*
X108162876Y-118638561D01*
X108150780Y-118590180D01*
X108138685Y-118565990D01*
X108114495Y-118541800D01*
X108078209Y-118529704D01*
X108054019Y-118529704D01*
X108017733Y-118541800D01*
X108005638Y-118553895D01*
X107775828Y-118783704D02*
X107896780Y-118783704D01*
X107896780Y-118529704D01*
X104485923Y-118541800D02*
X104510114Y-118529704D01*
X104546400Y-118529704D01*
X104582685Y-118541800D01*
X104606876Y-118565990D01*
X104618971Y-118590180D01*
X104631066Y-118638561D01*
X104631066Y-118674847D01*
X104618971Y-118723228D01*
X104606876Y-118747419D01*
X104582685Y-118771609D01*
X104546400Y-118783704D01*
X104522209Y-118783704D01*
X104485923Y-118771609D01*
X104473828Y-118759514D01*
X104473828Y-118674847D01*
X104522209Y-118674847D01*
X104364971Y-118783704D02*
X104364971Y-118529704D01*
X104219828Y-118783704D01*
X104219828Y-118529704D01*
X104098876Y-118783704D02*
X104098876Y-118529704D01*
X104038400Y-118529704D01*
X104002114Y-118541800D01*
X103977923Y-118565990D01*
X103965828Y-118590180D01*
X103953733Y-118638561D01*
X103953733Y-118674847D01*
X103965828Y-118723228D01*
X103977923Y-118747419D01*
X104002114Y-118771609D01*
X104038400Y-118783704D01*
X104098876Y-118783704D01*
X100044552Y-107789133D02*
X99923600Y-107789133D01*
X100068742Y-107861704D02*
X99984076Y-107607704D01*
X99899409Y-107861704D01*
X99814742Y-107861704D02*
X99814742Y-107607704D01*
X99693790Y-107861704D02*
X99693790Y-107607704D01*
X99548647Y-107861704D01*
X99548647Y-107607704D01*
X99294647Y-107861704D02*
X99439790Y-107861704D01*
X99367219Y-107861704D02*
X99367219Y-107607704D01*
X99391409Y-107643990D01*
X99415600Y-107668180D01*
X99439790Y-107680276D01*
X100095352Y-109059133D02*
X99974400Y-109059133D01*
X100119542Y-109131704D02*
X100034876Y-108877704D01*
X99950209Y-109131704D01*
X99865542Y-109131704D02*
X99865542Y-108877704D01*
X99744590Y-109131704D02*
X99744590Y-108877704D01*
X99599447Y-109131704D01*
X99599447Y-108877704D01*
X99490590Y-108901895D02*
X99478495Y-108889800D01*
X99454304Y-108877704D01*
X99393828Y-108877704D01*
X99369638Y-108889800D01*
X99357542Y-108901895D01*
X99345447Y-108926085D01*
X99345447Y-108950276D01*
X99357542Y-108986561D01*
X99502685Y-109131704D01*
X99345447Y-109131704D01*
X112743600Y-110268657D02*
X112714457Y-110280752D01*
X112704742Y-110292847D01*
X112695028Y-110317038D01*
X112695028Y-110353323D01*
X112704742Y-110377514D01*
X112714457Y-110389609D01*
X112733885Y-110401704D01*
X112811600Y-110401704D01*
X112811600Y-110147704D01*
X112743600Y-110147704D01*
X112724171Y-110159800D01*
X112714457Y-110171895D01*
X112704742Y-110196085D01*
X112704742Y-110220276D01*
X112714457Y-110244466D01*
X112724171Y-110256561D01*
X112743600Y-110268657D01*
X112811600Y-110268657D01*
X112568742Y-110147704D02*
X112529885Y-110147704D01*
X112510457Y-110159800D01*
X112491028Y-110183990D01*
X112481314Y-110232371D01*
X112481314Y-110317038D01*
X112491028Y-110365419D01*
X112510457Y-110389609D01*
X112529885Y-110401704D01*
X112568742Y-110401704D01*
X112588171Y-110389609D01*
X112607600Y-110365419D01*
X112617314Y-110317038D01*
X112617314Y-110232371D01*
X112607600Y-110183990D01*
X112588171Y-110159800D01*
X112568742Y-110147704D01*
X112393885Y-110147704D02*
X112393885Y-110353323D01*
X112384171Y-110377514D01*
X112374457Y-110389609D01*
X112355028Y-110401704D01*
X112316171Y-110401704D01*
X112296742Y-110389609D01*
X112287028Y-110377514D01*
X112277314Y-110353323D01*
X112277314Y-110147704D01*
X112209314Y-110147704D02*
X112092742Y-110147704D01*
X112151028Y-110401704D02*
X112151028Y-110147704D01*
X111917885Y-110401704D02*
X112034457Y-110401704D01*
X111976171Y-110401704D02*
X111976171Y-110147704D01*
X111995600Y-110183990D01*
X112015028Y-110208180D01*
X112034457Y-110220276D01*
X112730676Y-111538657D02*
X112701533Y-111550752D01*
X112691818Y-111562847D01*
X112682104Y-111587038D01*
X112682104Y-111623323D01*
X112691818Y-111647514D01*
X112701533Y-111659609D01*
X112720961Y-111671704D01*
X112798676Y-111671704D01*
X112798676Y-111417704D01*
X112730676Y-111417704D01*
X112711247Y-111429800D01*
X112701533Y-111441895D01*
X112691818Y-111466085D01*
X112691818Y-111490276D01*
X112701533Y-111514466D01*
X112711247Y-111526561D01*
X112730676Y-111538657D01*
X112798676Y-111538657D01*
X112555818Y-111417704D02*
X112516961Y-111417704D01*
X112497533Y-111429800D01*
X112478104Y-111453990D01*
X112468390Y-111502371D01*
X112468390Y-111587038D01*
X112478104Y-111635419D01*
X112497533Y-111659609D01*
X112516961Y-111671704D01*
X112555818Y-111671704D01*
X112575247Y-111659609D01*
X112594676Y-111635419D01*
X112604390Y-111587038D01*
X112604390Y-111502371D01*
X112594676Y-111453990D01*
X112575247Y-111429800D01*
X112555818Y-111417704D01*
X112380961Y-111417704D02*
X112380961Y-111623323D01*
X112371247Y-111647514D01*
X112361533Y-111659609D01*
X112342104Y-111671704D01*
X112303247Y-111671704D01*
X112283818Y-111659609D01*
X112274104Y-111647514D01*
X112264390Y-111623323D01*
X112264390Y-111417704D01*
X112196390Y-111417704D02*
X112079818Y-111417704D01*
X112138104Y-111671704D02*
X112138104Y-111417704D01*
X112021533Y-111441895D02*
X112011818Y-111429800D01*
X111992390Y-111417704D01*
X111943818Y-111417704D01*
X111924390Y-111429800D01*
X111914676Y-111441895D01*
X111904961Y-111466085D01*
X111904961Y-111490276D01*
X111914676Y-111526561D01*
X112031247Y-111671704D01*
X111904961Y-111671704D01*
X100157542Y-111599133D02*
X100060400Y-111599133D01*
X100176971Y-111671704D02*
X100108971Y-111417704D01*
X100040971Y-111671704D01*
X99934114Y-111417704D02*
X99895257Y-111417704D01*
X99875828Y-111429800D01*
X99856400Y-111453990D01*
X99846685Y-111502371D01*
X99846685Y-111587038D01*
X99856400Y-111635419D01*
X99875828Y-111659609D01*
X99895257Y-111671704D01*
X99934114Y-111671704D01*
X99953542Y-111659609D01*
X99972971Y-111635419D01*
X99982685Y-111587038D01*
X99982685Y-111502371D01*
X99972971Y-111453990D01*
X99953542Y-111429800D01*
X99934114Y-111417704D01*
X99759257Y-111417704D02*
X99759257Y-111623323D01*
X99749542Y-111647514D01*
X99739828Y-111659609D01*
X99720400Y-111671704D01*
X99681542Y-111671704D01*
X99662114Y-111659609D01*
X99652400Y-111647514D01*
X99642685Y-111623323D01*
X99642685Y-111417704D01*
X99574685Y-111417704D02*
X99458114Y-111417704D01*
X99516400Y-111671704D02*
X99516400Y-111417704D01*
X99399828Y-111441895D02*
X99390114Y-111429800D01*
X99370685Y-111417704D01*
X99322114Y-111417704D01*
X99302685Y-111429800D01*
X99292971Y-111441895D01*
X99283257Y-111466085D01*
X99283257Y-111490276D01*
X99292971Y-111526561D01*
X99409542Y-111671704D01*
X99283257Y-111671704D01*
X100157542Y-110329133D02*
X100060400Y-110329133D01*
X100176971Y-110401704D02*
X100108971Y-110147704D01*
X100040971Y-110401704D01*
X99934114Y-110147704D02*
X99895257Y-110147704D01*
X99875828Y-110159800D01*
X99856400Y-110183990D01*
X99846685Y-110232371D01*
X99846685Y-110317038D01*
X99856400Y-110365419D01*
X99875828Y-110389609D01*
X99895257Y-110401704D01*
X99934114Y-110401704D01*
X99953542Y-110389609D01*
X99972971Y-110365419D01*
X99982685Y-110317038D01*
X99982685Y-110232371D01*
X99972971Y-110183990D01*
X99953542Y-110159800D01*
X99934114Y-110147704D01*
X99759257Y-110147704D02*
X99759257Y-110353323D01*
X99749542Y-110377514D01*
X99739828Y-110389609D01*
X99720400Y-110401704D01*
X99681542Y-110401704D01*
X99662114Y-110389609D01*
X99652400Y-110377514D01*
X99642685Y-110353323D01*
X99642685Y-110147704D01*
X99574685Y-110147704D02*
X99458114Y-110147704D01*
X99516400Y-110401704D02*
X99516400Y-110147704D01*
X99283257Y-110401704D02*
X99399828Y-110401704D01*
X99341542Y-110401704D02*
X99341542Y-110147704D01*
X99360971Y-110183990D01*
X99380400Y-110208180D01*
X99399828Y-110220276D01*
X105822447Y-118529704D02*
X105737780Y-118783704D01*
X105653114Y-118529704D01*
X105568447Y-118783704D02*
X105568447Y-118614371D01*
X105568447Y-118529704D02*
X105580542Y-118541800D01*
X105568447Y-118553895D01*
X105556352Y-118541800D01*
X105568447Y-118529704D01*
X105568447Y-118553895D01*
X105447495Y-118614371D02*
X105447495Y-118783704D01*
X105447495Y-118638561D02*
X105435400Y-118626466D01*
X105411209Y-118614371D01*
X105374923Y-118614371D01*
X105350733Y-118626466D01*
X105338638Y-118650657D01*
X105338638Y-118783704D01*
X112665933Y-108986134D02*
X112629647Y-108998229D01*
X112617552Y-109010324D01*
X112605457Y-109034515D01*
X112605457Y-109070800D01*
X112617552Y-109094991D01*
X112629647Y-109107086D01*
X112653838Y-109119181D01*
X112750600Y-109119181D01*
X112750600Y-108865181D01*
X112665933Y-108865181D01*
X112641742Y-108877277D01*
X112629647Y-108889372D01*
X112617552Y-108913562D01*
X112617552Y-108937753D01*
X112629647Y-108961943D01*
X112641742Y-108974038D01*
X112665933Y-108986134D01*
X112750600Y-108986134D01*
X112496600Y-109119181D02*
X112496600Y-108865181D01*
X112375647Y-109119181D02*
X112375647Y-108865181D01*
X112230504Y-109119181D01*
X112230504Y-108865181D01*
X112121647Y-108889372D02*
X112109552Y-108877277D01*
X112085361Y-108865181D01*
X112024885Y-108865181D01*
X112000695Y-108877277D01*
X111988600Y-108889372D01*
X111976504Y-108913562D01*
X111976504Y-108937753D01*
X111988600Y-108974038D01*
X112133742Y-109119181D01*
X111976504Y-109119181D01*
X112665933Y-107677857D02*
X112629647Y-107689952D01*
X112617552Y-107702047D01*
X112605457Y-107726238D01*
X112605457Y-107762523D01*
X112617552Y-107786714D01*
X112629647Y-107798809D01*
X112653838Y-107810904D01*
X112750600Y-107810904D01*
X112750600Y-107556904D01*
X112665933Y-107556904D01*
X112641742Y-107569000D01*
X112629647Y-107581095D01*
X112617552Y-107605285D01*
X112617552Y-107629476D01*
X112629647Y-107653666D01*
X112641742Y-107665761D01*
X112665933Y-107677857D01*
X112750600Y-107677857D01*
X112496600Y-107810904D02*
X112496600Y-107556904D01*
X112375647Y-107810904D02*
X112375647Y-107556904D01*
X112230504Y-107810904D01*
X112230504Y-107556904D01*
X111976504Y-107810904D02*
X112121647Y-107810904D01*
X112049076Y-107810904D02*
X112049076Y-107556904D01*
X112073266Y-107593190D01*
X112097457Y-107617380D01*
X112121647Y-107629476D01*
X107140828Y-118771609D02*
X107104542Y-118783704D01*
X107044066Y-118783704D01*
X107019876Y-118771609D01*
X107007780Y-118759514D01*
X106995685Y-118735323D01*
X106995685Y-118711133D01*
X107007780Y-118686942D01*
X107019876Y-118674847D01*
X107044066Y-118662752D01*
X107092447Y-118650657D01*
X107116638Y-118638561D01*
X107128733Y-118626466D01*
X107140828Y-118602276D01*
X107140828Y-118578085D01*
X107128733Y-118553895D01*
X107116638Y-118541800D01*
X107092447Y-118529704D01*
X107031971Y-118529704D01*
X106995685Y-118541800D01*
X106886828Y-118783704D02*
X106886828Y-118529704D01*
X106826352Y-118529704D01*
X106790066Y-118541800D01*
X106765876Y-118565990D01*
X106753780Y-118590180D01*
X106741685Y-118638561D01*
X106741685Y-118674847D01*
X106753780Y-118723228D01*
X106765876Y-118747419D01*
X106790066Y-118771609D01*
X106826352Y-118783704D01*
X106886828Y-118783704D01*
X106644923Y-118711133D02*
X106523971Y-118711133D01*
X106669114Y-118783704D02*
X106584447Y-118529704D01*
X106499780Y-118783704D01*
M02*
